<svg id="Calque_1" data-name="Calque 1" xmlns="http://www.w3.org/2000/svg" viewBox="0 0 2835.87 2836.76"><defs><style>.cls-1,.cls-2{stroke:#000;stroke-miterlimit:10;}.cls-2{fill:#f7f7f7;}</style></defs><title>Zygof - Crow</title><path d="M1529.93,2172.6" transform="translate(0.5 0.5)"/><path d="M1888.67,2742.38" transform="translate(0.5 0.5)"/><path d="M213.93,337.8" transform="translate(0.5 0.5)"/><path id="crow" class="cls-1" d="M1744.69,2225.15s15.35,6.68-75.51-22.75c0,0-139.25-29.8-151.94-26.72,0,0,470.37,460.09,415.78,659l-36.85-97.22-60.5-23.5s-200.16-327.5-276.58-273.08c0,0-91.89-31.66-98.26,121.7V2447.78s3.64-56.4,83.7-125.66c0,0-253.84-200.86-219.26-209.76,0,0-2.73-130.61,27.29-182.06,0,0-242.92-24.74-311.16,49.47,0,0-463.66,652.82-490.84,664.41-112.85,48.11-13.19-7.42-13.19-7.42S706.47,2289,723,2214.26c.4-1.81.71-3.46.93-4.94,9.1-62.33-301.15,573.87-428.52,546.17,0,0,297.51-571.89,239.28-604.54,0,0-272,507.58-341.18,485.81,0,0,101-333.94,73.69-384.4,0,0-83.7,360.65-225.63,349.77,0,0-99.17-845,878.88-905.34l1008.07-402.7s224.73-185,43.67-456.13c0,0,363,491.75-1129.07,760.88,0,0-895.26,193.93-840.67,221.63,0,0-76.43-136.54,837.94-368.07,0,0-292.05,0-581.37,109.83,0,0,85.52-189,1055.38-373,0,0-494.57-28.7-670.53,102.9,0,0-172-231.52,1323.77-736.14l305.7-430.4,182.87,8.9s230.19-222.62,307.52-95c0,0-4.55-2.58-12.86-4-35.34-5.93-138.68,9.59-249.17,336.43,0,0,294.78-23.75,333,77.17h-212.9s-76.42,118.74-60.05,332.46c0,0-338.45,581.78-305.7,623.34L2242.36,1445l-6.83-65.3s-532.69,607-534.51,573.38l-131,1.35v198.51h285.68s112.81,51.45,129.19,162.27l-.91,184-32.75,62.21-49.13,16.94,16.37-19.17s36.06-38.71,18.2-62.95c0,0,18.2-190-51.86-191,0,0,0,84.1-17.29,110.81,0,0-31.84-202.83-54.58-165.23,0,0-59.14,24.73-82.8,82.12" transform="translate(0.5 0.5)"/><path id="oeil" class="cls-2" d="M2386.56,263.6c-45.16-69.58-68.23,146.93-68.23,146.93S2435.69,339.29,2386.56,263.6Z" transform="translate(0.5 0.5)"/></svg>